<?xml version="1.0" encoding="UTF-8"?>
<svg width="800px" height="800px" viewBox="0 0 800 800" version="1.1" xmlns="http://www.w3.org/2000/svg">
    <g stroke="none" stroke-width="1" fill="none" fill-rule="evenodd" opacity="0.85">
        <g transform="translate(38.000000, 60.000000)" fill="#FFFFFF">
            <path d="M607.994667,280 C612.412594,280 615.994667,283.582075 615.994667,288 C615.994667,292.417925 612.412594,296 607.994667,296 L28.005333,296 C23.587406,296 20.005333,292.417925 20.005333,288 C20.005333,283.582075 23.587406,280 28.005333,280 L607.994667,280 Z M28.005333,120 C23.587406,120 20.005333,116.417925 20.005333,112 C20.005333,107.582075 23.587406,104 28.005333,104 L607.994667,104 C612.412594,104 615.994667,107.582075 615.994667,112 C615.994667,116.417925 612.412594,120 607.994667,120 L28.005333,120 Z M8,568 C3.58207333,568 0,564.417925 0,560 L0,8 C0,3.58207333 3.58207333,0 8,0 L628,0 C632.417925,0 636,3.58207333 636,8 L636,560 C636,564.417925 632.417925,568 628,568 L8,568 Z M16,552 L620,552 L620,16 L16,16 L16,552 Z" opacity="0.25"/>
            <circle cx="318" cy="112" r="28" opacity="0.15"/>
            <path d="M556,452 C570.359403,452 582,463.640597 582,478 C582,492.359403 570.359403,504 556,504 C541.640597,504 530,492.359403 530,478 C530,463.640597 541.640597,452 556,452 Z M556,468 C550.477142,468 546,472.477142 546,478 C546,483.522858 550.477142,488 556,488 C561.522858,488 566,483.522858 566,478 C566,472.477142 561.522858,468 556,468 Z" opacity="0.2"/>
            <path d="M438,396 C457.882251,396 474,412.117749 474,432 C474,451.882251 457.882251,468 438,468 C418.117749,468 402,451.882251 402,432 C402,412.117749 418.117749,396 438,396 Z M438,412 C427.049788,412 418,421.049788 418,432 C418,442.950212 427.049788,452 438,452 C448.950212,452 458,442.950212 458,432 C458,421.049788 448.950212,412 438,412 Z" opacity="0.15"/>
            <path d="M686.348354,328 L714.651646,328 C720.174504,328 724.651646,332.477142 724.651646,338 L724.651646,366.303292 C724.651646,371.826149 720.174504,376.303292 714.651646,376.303292 L686.348354,376.303292 C680.825496,376.303292 676.348354,371.826149 676.348354,366.303292 L676.348354,338 C676.348354,332.477142 680.825496,328 686.348354,328 Z M692,344 L692,360 L708,360 L708,344 L692,344 Z" opacity="0.2" transform="translate(700.500000, 352.151646) rotate(45.000000) translate(-700.500000, -352.151646)"/>
            <path d="M100,388 L124,388 C129.522848,388 134,392.477152 134,398 L134,422 C134,427.522848 129.522848,432 124,432 L100,432 C94.4771525,432 90,427.522848 90,422 L90,398 C90,392.477152 94.4771525,388 100,388 Z M104,404 L104,416 L120,416 L120,404 L104,404 Z" opacity="0.2"/>
            <path d="M330,108 L330,116 L338,116 L338,108 L330,108 Z M302,108 L302,116 L322,116 L322,108 L302,108 Z M342,108 L342,116 L394,116 L394,108 L342,108 Z" opacity="0.2"/>
            <path d="M330,148 L330,156 L338,156 L338,148 L330,148 Z M302,148 L302,156 L322,156 L322,148 L302,148 Z M342,148 L342,156 L394,156 L394,148 L342,148 Z" opacity="0.2"/>
            <path d="M330,168 L330,176 L338,176 L338,168 L330,168 Z M302,168 L302,176 L322,176 L322,168 L302,168 Z M342,168 L342,176 L394,176 L394,168 L342,168 Z" opacity="0.2"/>
            <path d="M330,188 L330,196 L338,196 L338,188 L330,188 Z M302,188 L302,196 L322,196 L322,188 L302,188 Z M342,188 L342,196 L394,196 L394,188 L342,188 Z" opacity="0.2"/>
            <path d="M330,208 L330,216 L338,216 L338,208 L330,208 Z M302,208 L302,216 L322,216 L322,208 L302,208 Z M342,208 L342,216 L394,216 L394,208 L342,208 Z" opacity="0.2"/>
            <path d="M330,228 L330,236 L338,236 L338,228 L330,228 Z M302,228 L302,236 L322,236 L322,228 L302,228 Z M342,228 L342,236 L394,236 L394,228 L342,228 Z" opacity="0.2"/>
        </g>
    </g>
</svg>