<?xml version="1.0" encoding="UTF-8"?>
<svg width="800px" height="800px" viewBox="0 0 800 800" version="1.1" xmlns="http://www.w3.org/2000/svg">
    <g stroke="none" stroke-width="1" fill="none" fill-rule="evenodd" opacity="0.85">
        <g transform="translate(50.000000, 20.000000)" fill="#FFFFFF">
            <path d="M347.5,110 L579.520508,218.75 C583.414072,220.583333 585.833333,224.583333 585.833333,229 C585.833333,233.416667 583.414072,237.416667 579.520508,239.25 L347.5,348 L115.479492,239.25 C111.585928,237.416667 109.166667,233.416667 109.166667,229 C109.166667,224.583333 111.585928,220.583333 115.479492,218.75 L347.5,110 Z M347.5,131.333333 L156.145833,221.333333 L347.5,326.666667 L538.854167,221.333333 L347.5,131.333333 Z" opacity="0.25"/>
            <path d="M356.666667,360 C359.428203,360 361.666667,362.238464 361.666667,365 L361.666667,500.666667 C361.666667,503.428203 359.428203,505.666667 356.666667,505.666667 C353.90513,505.666667 351.666667,503.428203 351.666667,500.666667 L351.666667,365 C351.666667,362.238464 353.90513,360 356.666667,360 Z" opacity="0.2"/>
            <path d="M558.333333,241.666667 L558.333333,358.333333 L541.666667,358.333333 L541.666667,256.666667 L538.333333,258.333333 L538.333333,241.666667 L558.333333,241.666667 Z" opacity="0.2"/>
            <path d="M538.333333,358.333333 C550.5,358.333333 560.416667,348.416667 560.416667,336.25 C560.416667,324.083333 550.5,314.166667 538.333333,314.166667 C526.166667,314.166667 516.25,324.083333 516.25,336.25 C516.25,348.416667 526.166667,358.333333 538.333333,358.333333 Z M538.333333,343.333333 C534.416667,343.333333 531.25,340.166667 531.25,336.25 C531.25,332.333333 534.416667,329.166667 538.333333,329.166667 C542.25,329.166667 545.416667,332.333333 545.416667,336.25 C545.416667,340.166667 542.25,343.333333 538.333333,343.333333 Z" opacity="0.25"/>
            <path d="M418.3333,500.0006 L418.3333,533.3339 C418.3333,566.6673 389.8333,593.7506 355,593.7506 C320.1667,593.7506 291.6667,566.6673 291.6667,533.3339 L291.6667,500.0006 L418.3333,500.0006 Z M398.3333,516.6673 L311.6667,516.6673 L311.6667,533.3339 C311.6667,555.8339 331.1667,573.7506 355,573.7506 C378.8333,573.7506 398.3333,555.8339 398.3333,533.3339 L398.3333,516.6673 Z" opacity="0.25"/>
            <path d="M455,583.333333 C457.5,583.333333 459.791667,582.041667 461.041667,580.041667 L508.125,506.875 C509.416667,504.791667 509.625,502.166667 508.75,500 C507.875,497.791667 505.875,496.25 503.541667,495.916667 L451.458333,489.416667 C448.75,489.041667 446.125,490.541667 444.833333,493.041667 L419.791667,537.708333 C419.166667,538.791667 418.916667,540.041667 419.041667,541.333333 L422.75,576.375 C423,579.041667 424.666667,581.291667 427.208333,582.25 C427.833333,582.5 428.5,582.625 429.125,582.75 L452.5,583.25 C453.333333,583.333333 454.166667,583.333333 455,583.333333 Z M450.833333,506.875 L485.958333,511.25 L453.75,564.583333 L438.916667,539.791667 L450.833333,506.875 Z" opacity="0.2"/>
            <path d="M249.583333,583.333333 C250.416667,583.333333 251.25,583.333333 252.083333,583.25 L275.416667,582.75 C276.083333,582.625 276.75,582.5 277.375,582.25 C279.916667,581.291667 281.583333,579.041667 281.833333,576.375 L285.541667,541.333333 C285.666667,540.041667 285.416667,538.791667 284.791667,537.708333 L259.75,493.041667 C258.458333,490.541667 255.833333,489.041667 253.083333,489.416667 L201,495.916667 C198.666667,496.25 196.666667,497.791667 195.791667,500 C194.958333,502.166667 195.166667,504.791667 196.416667,506.875 L243.5,580.041667 C244.791667,582.041667 247.083333,583.333333 249.583333,583.333333 Z M254,506.875 L265.916667,539.791667 L251.083333,564.583333 L218.875,511.25 L254,506.875 Z" opacity="0.2"/>
            <path d="M685,495 C707.092994,495 726.25,514.157006 726.25,536.25 C726.25,548.597074 720.847071,559.694208 712.333389,567.083389 L712.333333,586.666667 C712.333333,601.37513 700.37513,613.333333 685.666667,613.333333 L684.333333,613.333333 C669.62487,613.333333 657.666667,601.37513 657.666667,586.666667 L657.666667,567.083333 C649.152917,559.694208 643.75,548.597074 643.75,536.25 C643.75,514.157006 662.907006,495 685,495 Z M685,511 C671.745166,511 661,521.745166 661,535 C661,542.221482 664.207708,548.713557 669.396833,552.9505 L671.666667,554.666667 L671.666667,586.666667 C671.666667,593.579798 677.420202,599.333333 684.333333,599.333333 L685.666667,599.333333 C692.579798,599.333333 698.333333,593.579798 698.333333,586.666667 L698.333333,554.666667 L700.603153,552.9505 C705.792277,548.713557 709,542.221482 709,535 C709,521.745166 698.254834,511 685,511 Z" opacity="0.2"/>
            <path d="M65,495 C87.0929938,495 106.25,514.157006 106.25,536.25 C106.25,548.597074 100.847083,559.694208 92.3333889,567.083389 L92.3333333,586.666667 C92.3333333,601.37513 80.3751302,613.333333 65.6666667,613.333333 L64.3333333,613.333333 C49.6248698,613.333333 37.6666667,601.37513 37.6666667,586.666667 L37.6666667,567.083333 C29.1529167,559.694208 23.75,548.597074 23.75,536.25 C23.75,514.157006 42.9070062,495 65,495 Z M65,511 C51.7451659,511 41,521.745166 41,535 C41,542.221482 44.2077083,548.713557 49.3968333,552.9505 L51.6666667,554.666667 L51.6666667,586.666667 C51.6666667,593.579798 57.4202015,599.333333 64.3333333,599.333333 L65.6666667,599.333333 C72.5797985,599.333333 78.3333333,593.579798 78.3333333,586.666667 L78.3333333,554.666667 L80.6031528,552.9505 C85.7922778,548.713557 89,542.221482 89,535 C89,521.745166 78.2548341,511 65,511 Z" opacity="0.2"/>
            <path d="M235,50 C246.045695,50 255,58.954305 255,70 C255,81.045695 246.045695,90 235,90 C223.954305,90 215,81.045695 215,70 C215,58.954305 223.954305,50 235,50 Z M235,65 C231.686292,65 229,67.6862915 229,71 C229,74.3137085 231.686292,77 235,77 C238.313708,77 241,74.3137085 241,71 C241,67.6862915 238.313708,65 235,65 Z" opacity="0.15"/>
            <circle cx="490" cy="70" r="10" opacity="0.15"/>
            <path d="M385,400 C396.045695,400 405,408.954305 405,420 C405,431.045695 396.045695,440 385,440 C373.954305,440 365,431.045695 365,420 C365,408.954305 373.954305,400 385,400 Z M385,415 C381.686292,415 379,417.686292 379,421 C379,424.313708 381.686292,427 385,427 C388.313708,427 391,424.313708 391,421 C391,417.686292 388.313708,415 385,415 Z" opacity="0.15"/>
            <path d="M631,338 C642.045695,338 651,346.954305 651,358 C651,369.045695 642.045695,378 631,378 C619.954305,378 611,369.045695 611,358 C611,346.954305 619.954305,338 631,338 Z M631,353 C627.686292,353 625,355.686292 625,359 C625,362.313708 627.686292,365 631,365 C634.313708,365 637,362.313708 637,359 C637,355.686292 634.313708,353 631,353 Z" opacity="0.15"/>
        </g>
    </g>
</svg>