<?xml version="1.0" encoding="UTF-8"?>
<svg width="800px" height="800px" viewBox="0 0 800 800" version="1.1" xmlns="http://www.w3.org/2000/svg">
    <g stroke="none" stroke-width="1" fill="none" fill-rule="evenodd" opacity="0.85">
        <g transform="translate(83.000000, 50.000000)" fill="#FFFFFF">
            <path d="M632,80 C637.522847,80 642,84.4771525 642,90 L642,614 C642,619.522847 637.522847,624 632,624 L10,624 C4.4771525,624 0,619.522847 0,614 L0,90 C0,84.4771525 4.4771525,80 10,80 L632,80 Z M622,100 L20,100 L20,604 L622,604 L622,100 Z" opacity="0.25"/>
            <path d="M544,304 L544,520 L100,520 L100,304 L544,304 Z M524,324 L120,324 L120,500 L524,500 L524,324 Z" opacity="0.15"/>
            <path d="M10,40 C4.4771525,40 0,35.5228475 0,30 C0,24.4771525 4.4771525,20 10,20 L632,20 C637.522847,20 642,24.4771525 642,30 C642,35.5228475 637.522847,40 632,40 L10,40 Z M10,0 C4.4771525,0 0,-4.4771525 0,-10 C0,-15.5228475 4.4771525,-20 10,-20 L632,-20 C637.522847,-20 642,-15.5228475 642,-10 C642,-4.4771525 637.522847,0 632,0 L10,0 Z" opacity="0.2"/>
            <path d="M80,200 L240,200 C251.045695,200 260,208.954305 260,220 L260,260 C260,271.045695 251.045695,280 240,280 L80,280 C68.954305,280 60,271.045695 60,260 L60,220 C60,208.954305 68.954305,200 80,200 Z M107.6,256 L212.4,256 C214.432712,256 216.066818,254.333333 216.066818,252.285714 L216.066818,227.714286 C216.066818,225.666667 214.432712,224 212.4,224 L107.6,224 C105.567288,224 103.933182,225.666667 103.933182,227.714286 L103.933182,252.285714 C103.933182,254.333333 105.567288,256 107.6,256 Z" opacity="0.2"/>
            <path d="M140,450 L160,450 L160,400 L140,400 L140,450 Z M190,450 L210,450 L210,370 L190,370 L190,450 Z M240,450 L260,450 L260,410 L240,410 L240,450 Z M290,450 L310,450 L310,350 L290,350 L290,450 Z M340,450 L360,450 L360,380 L340,380 L340,450 Z M390,450 L410,450 L410,340 L390,340 L390,450 Z M440,450 L460,450 L460,390 L440,390 L440,450 Z M490,450 L510,450 L510,360 L490,360 L490,450 Z" opacity="0.25"/>
            <path d="M470,240 C470,251.045695 461.045695,260 450,260 L404,260 C392.954305,260 384,251.045695 384,240 C384,228.954305 392.954305,220 404,220 L450,220 C461.045695,220 470,228.954305 470,240 Z" opacity="0.2"/>
            <circle cx="450" cy="240" r="10" opacity="0.15"/>
            <path d="M520,180 L520,160 L100,160 L100,180 L520,180 Z" opacity="0.2"/>
            <circle cx="60" cy="40" r="10" opacity="0.15"/>
            <circle cx="90" cy="40" r="10" opacity="0.15"/>
            <circle cx="120" cy="40" r="10" opacity="0.15"/>
            <path d="M576,564 C587.045695,564 596,572.954305 596,584 C596,595.045695 587.045695,604 576,604 C564.954305,604 556,595.045695 556,584 C556,572.954305 564.954305,564 576,564 Z M576,575 C571.029437,575 567,579.029437 567,584 C567,588.970563 571.029437,593 576,593 C580.970563,593 585,588.970563 585,584 C585,579.029437 580.970563,575 576,575 Z" opacity="0.2"/>
        </g>
    </g>
</svg>